<svg xmlns="http://www.w3.org/2000/svg" width="29.251" height="29.251" viewBox="0 0 29.251 29.251">
  <path id="Icon_material-leak-add" data-name="Icon material-leak-add" d="M9.375,4.5H4.5V9.375A4.869,4.869,0,0,0,9.375,4.5Zm13,0h-3.25A14.627,14.627,0,0,1,4.5,19.125v3.25A17.876,17.876,0,0,0,22.376,4.5Zm-6.5,0h-3.25A8.128,8.128,0,0,1,4.5,12.625v3.25A11.367,11.367,0,0,0,15.875,4.5Zm0,29.251h3.25A14.627,14.627,0,0,1,33.751,19.125v-3.25A17.886,17.886,0,0,0,15.875,33.751Zm13,0h4.875V28.876A4.869,4.869,0,0,0,28.876,33.751Zm-6.5,0h3.25a8.128,8.128,0,0,1,8.125-8.125v-3.25A11.367,11.367,0,0,0,22.376,33.751Z" transform="translate(-4.5 -4.5)" fill="#222066"/>
</svg>
