<svg xmlns="http://www.w3.org/2000/svg" width="36.564" height="29.251" viewBox="0 0 36.564 29.251">
  <path id="Icon_awesome-project-diagram" data-name="Icon awesome-project-diagram" d="M21.938,18.282H14.625A1.828,1.828,0,0,0,12.8,20.11v7.313a1.828,1.828,0,0,0,1.828,1.828h7.313a1.828,1.828,0,0,0,1.828-1.828V20.11A1.828,1.828,0,0,0,21.938,18.282ZM10.969,1.828A1.828,1.828,0,0,0,9.141,0H1.828A1.828,1.828,0,0,0,0,1.828V9.141a1.828,1.828,0,0,0,1.828,1.828H7.3l4.18,7.315a3.644,3.644,0,0,1,3.149-1.83h.016l-3.672-6.427V7.313h12.8V3.656h-12.8ZM34.736,0H27.423a1.828,1.828,0,0,0-1.828,1.828V9.141a1.828,1.828,0,0,0,1.828,1.828h7.313a1.828,1.828,0,0,0,1.828-1.828V1.828A1.828,1.828,0,0,0,34.736,0Z" fill="#222066"/>
</svg>
