<svg xmlns="http://www.w3.org/2000/svg" width="29.251" height="29.251" viewBox="0 0 29.251 29.251">
  <path id="Icon_material-person-outline" data-name="Icon material-person-outline" d="M20.625,9.474a3.839,3.839,0,1,1-3.839,3.839,3.839,3.839,0,0,1,3.839-3.839m0,16.454c5.43,0,11.152,2.669,11.152,3.839v2.011H9.474V29.766c0-1.17,5.722-3.839,11.152-3.839M20.625,6a7.313,7.313,0,1,0,7.313,7.313A7.311,7.311,0,0,0,20.625,6Zm0,16.454C15.744,22.454,6,24.9,6,29.766v5.485H35.251V29.766C35.251,24.9,25.507,22.454,20.625,22.454Z" transform="translate(-6 -6)" fill="#222066"/>
</svg>
