<svg xmlns="http://www.w3.org/2000/svg" width="43.384" height="43.384" viewBox="0 0 43.384 43.384">
  <path id="Icon_simple-instagram" data-name="Icon simple-instagram" d="M21.692,0C15.8,0,15.063.027,12.75.13A16,16,0,0,0,7.484,1.139a10.623,10.623,0,0,0-3.843,2.5,10.584,10.584,0,0,0-2.5,3.843A15.949,15.949,0,0,0,.13,12.75C.022,15.063,0,15.8,0,21.692s.027,6.629.13,8.943A16.005,16.005,0,0,0,1.139,35.9a10.638,10.638,0,0,0,2.5,3.843,10.608,10.608,0,0,0,3.843,2.5,16.015,16.015,0,0,0,5.266,1.009c2.314.108,3.05.13,8.943.13s6.629-.027,8.943-.13A16.052,16.052,0,0,0,35.9,42.246,11.086,11.086,0,0,0,42.245,35.9a16.005,16.005,0,0,0,1.009-5.266c.108-2.314.13-3.05.13-8.943s-.027-6.629-.13-8.943a16.042,16.042,0,0,0-1.009-5.266,10.646,10.646,0,0,0-2.5-3.843,10.569,10.569,0,0,0-3.843-2.5A15.958,15.958,0,0,0,30.635.13C28.321.022,27.585,0,21.692,0Zm0,3.9c5.79,0,6.481.029,8.767.128a11.951,11.951,0,0,1,4.026.75A7.138,7.138,0,0,1,38.6,8.9a11.977,11.977,0,0,1,.747,4.026c.1,2.289.127,2.975.127,8.767s-.027,6.481-.134,8.767a12.207,12.207,0,0,1-.761,4.026,6.888,6.888,0,0,1-1.625,2.5,6.767,6.767,0,0,1-2.495,1.62,12.065,12.065,0,0,1-4.04.747c-2.3.1-2.981.127-8.784.127s-6.482-.027-8.784-.134a12.3,12.3,0,0,1-4.042-.761A6.718,6.718,0,0,1,6.32,36.956a6.587,6.587,0,0,1-1.627-2.495,12.311,12.311,0,0,1-.759-4.04c-.081-2.278-.11-2.981-.11-8.756s.029-6.482.11-8.787A12.3,12.3,0,0,1,4.693,8.84a6.43,6.43,0,0,1,1.627-2.5A6.416,6.416,0,0,1,8.812,4.72a12.006,12.006,0,0,1,4.015-.761c2.3-.081,2.983-.108,8.784-.108l.081.054Zm0,6.649A11.139,11.139,0,1,0,32.831,21.692,11.138,11.138,0,0,0,21.692,10.553Zm0,18.37a7.231,7.231,0,1,1,7.231-7.231A7.229,7.229,0,0,1,21.692,28.923ZM35.875,10.114a2.6,2.6,0,1,1-2.6-2.6A2.6,2.6,0,0,1,35.875,10.114Z" fill="#222066"/>
</svg>
