<svg xmlns="http://www.w3.org/2000/svg" width="29.883" height="29.251" viewBox="0 0 29.883 29.251">
  <path id="Icon_metro-tools" data-name="Icon metro-tools" d="M34.516,10.389A7.44,7.44,0,0,1,23.97,19.723l-2.058,2.248,1.468,1.474.878-.878a1.147,1.147,0,0,1,1.624,0L33,29.756a1.147,1.147,0,0,1,0,1.624L29.75,34.628a1.147,1.147,0,0,1-1.624,0L21.01,27.439a1.147,1.147,0,0,1,0-1.624l.8-.8-1.4-1.4L10.571,34.363a2.3,2.3,0,0,1-3.248,0l-.812-.812a2.3,2.3,0,0,1,0-3.248l11.212-9.39-7.446-7.466H7.924L5.2,9.069l2.19-2.194,4.475,2.739.029,2.3L19.43,19.48l2.192-1.835A7.448,7.448,0,0,1,30.445,6.337L25.62,11.1l4.061,4.061,4.835-4.768ZM9.2,31.448a1.149,1.149,0,1,0,0,1.625A1.149,1.149,0,0,0,9.2,31.448Z" transform="translate(-5.202 -5.785)" fill="#222066"/>
</svg>
