<svg xmlns="http://www.w3.org/2000/svg" width="37.608" height="29.251" viewBox="0 0 37.608 29.251">
  <path id="Icon_awesome-comments-dollar" data-name="Icon awesome-comments-dollar" d="M27.162,12.7c0-5.77-6.08-10.447-13.581-10.447S0,6.927,0,12.7A8.866,8.866,0,0,0,2.479,18.7a14.615,14.615,0,0,1-2.336,3.56.522.522,0,0,0,.379.881,11.489,11.489,0,0,0,5.793-1.631,16.572,16.572,0,0,0,7.265,1.631C21.082,23.144,27.162,18.467,27.162,12.7ZM12.536,18.965V17.9a3.739,3.739,0,0,1-2.048-.741.523.523,0,0,1-.037-.793l.767-.732a.536.536,0,0,1,.661-.048,1.572,1.572,0,0,0,.837.243h1.835a.821.821,0,0,0,.77-.861.852.852,0,0,0-.573-.831l-2.938-.881a2.955,2.955,0,0,1-2.062-2.833,2.908,2.908,0,0,1,2.786-2.943V6.429a.522.522,0,0,1,.522-.522H14.1a.522.522,0,0,1,.522.522V7.492a3.734,3.734,0,0,1,2.048.741.523.523,0,0,1,.037.793l-.767.732a.536.536,0,0,1-.661.048,1.566,1.566,0,0,0-.837-.243H12.609a.821.821,0,0,0-.77.861.852.852,0,0,0,.573.831l2.938.881a2.955,2.955,0,0,1,2.062,2.833,2.907,2.907,0,0,1-2.786,2.943v1.053a.522.522,0,0,1-.522.522H13.058A.522.522,0,0,1,12.536,18.965Zm22.592,8.1a8.863,8.863,0,0,0,2.48-6.006c0-4.371-3.492-8.109-8.444-9.668a10.132,10.132,0,0,1,.087,1.31c0,6.912-7.029,12.536-15.67,12.536a19.473,19.473,0,0,1-2.072-.123C13.568,28.865,18.4,31.5,24.028,31.5a16.572,16.572,0,0,0,7.265-1.631A11.489,11.489,0,0,0,37.086,31.5a.522.522,0,0,0,.378-.882A14.559,14.559,0,0,1,35.128,27.06Z" transform="translate(0 -2.25)" fill="#222066"/>
</svg>
