<svg width="55" height="86" viewBox="0 0 55 86" fill="none" xmlns="http://www.w3.org/2000/svg">
<path d="M19.0117 20.4639C18.043 20.4639 17.3164 20.5345 16.832 20.6758V17.9814H19.9805C25.2884 17.9814 29.2845 18.9805 31.9688 20.9785C34.431 22.7949 35.6621 25.3278 35.6621 28.5771C35.6621 31.1605 34.7135 33.32 32.8164 35.0557C30.9395 36.7712 28.3965 37.8105 25.1875 38.1738V38.2949C31.1816 39.1022 35.0768 41.2617 36.873 44.7734C37.5391 46.0247 37.8721 47.498 37.8721 49.1934C37.8721 50.8685 37.5794 52.4225 36.9941 53.8555C36.4089 55.2884 35.5007 56.5397 34.2695 57.6094C31.6257 59.8698 27.7809 61 22.7354 61H16.832V58.3359C17.276 58.457 18.1842 58.5176 19.5566 58.5176C23.0482 58.5176 25.6113 57.8112 27.2461 56.3984C28.8809 54.9857 29.6982 52.7152 29.6982 49.5869C29.6982 46.4587 28.8102 44.057 27.0342 42.3818C25.2783 40.7067 22.6042 39.8691 19.0117 39.8691H16.832V37.2051H17.9824C24.2995 37.2051 27.458 34.3493 27.458 28.6377C27.458 23.1885 24.6426 20.4639 19.0117 20.4639ZM14.3193 61H2.54297V59.2139C3.08789 58.9717 3.61263 58.7799 4.11719 58.6387C4.64193 58.4974 5.10612 58.3158 5.50977 58.0938C6.35742 57.6094 6.78125 56.7214 6.78125 55.4297V23.5518C6.78125 22.2601 6.35742 21.3721 5.50977 20.8877C5.10612 20.6657 4.64193 20.484 4.11719 20.3428C3.61263 20.2015 3.08789 20.0098 2.54297 19.7676V17.9814H14.3193V61Z" fill="#1A1141"/>
<rect x="42" y="48" width="13" height="13" rx="6.5" fill="black"/>
</svg>
