<svg width="41" height="44" viewBox="0 0 41 44" fill="none" xmlns="http://www.w3.org/2000/svg">
<path d="M19.0117 3.46387C18.043 3.46387 17.3164 3.53451 16.832 3.67578V0.981445H19.9805C25.2884 0.981445 29.2845 1.98047 31.9688 3.97852C34.431 5.79492 35.6621 8.3278 35.6621 11.5771C35.6621 14.1605 34.7135 16.32 32.8164 18.0557C30.9395 19.7712 28.3965 20.8105 25.1875 21.1738V21.2949C31.1816 22.1022 35.0768 24.2617 36.873 27.7734C37.5391 29.0247 37.8721 30.498 37.8721 32.1934C37.8721 33.8685 37.5794 35.4225 36.9941 36.8555C36.4089 38.2884 35.5007 39.5397 34.2695 40.6094C31.6257 42.8698 27.7809 44 22.7354 44H16.832V41.3359C17.276 41.457 18.1842 41.5176 19.5566 41.5176C23.0482 41.5176 25.6113 40.8112 27.2461 39.3984C28.8809 37.9857 29.6982 35.7152 29.6982 32.5869C29.6982 29.4587 28.8102 27.057 27.0342 25.3818C25.2783 23.7067 22.6042 22.8691 19.0117 22.8691H16.832V20.2051H17.9824C24.2995 20.2051 27.458 17.3493 27.458 11.6377C27.458 6.18848 24.6426 3.46387 19.0117 3.46387ZM14.3193 44H2.54297V42.2139C3.08789 41.9717 3.61263 41.7799 4.11719 41.6387C4.64193 41.4974 5.10612 41.3158 5.50977 41.0938C6.35742 40.6094 6.78125 39.7214 6.78125 38.4297V6.55176C6.78125 5.26009 6.35742 4.37207 5.50977 3.8877C5.10612 3.66569 4.64193 3.48405 4.11719 3.34277C3.61263 3.2015 3.08789 3.00977 2.54297 2.76758V0.981445H14.3193V44Z" fill="#4200FF"/>
</svg>
