<svg width="55" height="55" viewBox="0 0 55 55" fill="none" xmlns="http://www.w3.org/2000/svg">
<path d="M27.9219 4.13379C29.4154 4.27507 30.6868 4.61816 31.7363 5.16309C32.806 5.70801 33.5326 6.09147 33.916 6.31348C34.3197 6.53548 34.6527 6.64648 34.915 6.64648C35.1976 6.64648 35.4297 6.58594 35.6113 6.46484C35.793 6.34375 35.9544 6.20247 36.0957 6.04102C36.237 5.87956 36.3581 5.70801 36.459 5.52637C36.5599 5.32454 36.6608 5.1429 36.7617 4.98145H39.5469V19.1797H37.3672C36.9232 18.7155 36.4186 17.7064 35.8535 16.1523C35.2884 14.5781 34.804 13.3268 34.4004 12.3984C34.0169 11.4701 33.5326 10.6022 32.9473 9.79492C31.6556 7.9987 29.9805 6.93913 27.9219 6.61621V4.13379ZM21.7764 47.8486C20.5856 47.3037 19.748 46.9202 19.2637 46.6982C18.7793 46.4561 18.2747 46.335 17.75 46.335C17.2454 46.335 16.6803 46.89 16.0547 48H13.2393V33.0449H15.3281C15.7721 33.5091 16.1657 34.1449 16.5088 34.9521C16.8721 35.7594 17.2454 36.6374 17.6289 37.5859C18.0326 38.5143 18.4665 39.473 18.9307 40.4619C19.3949 41.4508 19.96 42.3691 20.626 43.2168C22.1195 45.0938 24.0166 46.1533 26.3174 46.3955V48.8779C24.501 48.7165 22.9873 48.3734 21.7764 47.8486ZM28.8301 46.3652C31.0098 46.1029 32.695 45.2148 33.8857 43.7012C34.9352 42.349 35.46 40.805 35.46 39.0693C35.46 37.3135 35.1471 35.9108 34.5215 34.8613C33.8958 33.7917 33.0684 32.8532 32.0391 32.0459C31.0299 31.2184 29.8695 30.4717 28.5576 29.8057C27.2458 29.1396 25.9036 28.4837 24.5312 27.8379C23.179 27.1719 21.847 26.4857 20.5352 25.7793C19.2435 25.0527 18.0931 24.2253 17.084 23.2969C14.8034 21.1979 13.6631 18.6449 13.6631 15.6377C13.6631 12.5902 14.7025 9.98665 16.7812 7.82715C19.0013 5.56673 21.8773 4.31543 25.4092 4.07324V6.58594C22.9066 6.90885 21.2214 8.19043 20.3535 10.4307C20.071 11.1572 19.9297 12.0654 19.9297 13.1553C19.9297 14.2451 20.2526 15.2643 20.8984 16.2129C21.5443 17.1615 22.3919 18.0091 23.4414 18.7559C24.4909 19.5026 25.6816 20.1888 27.0137 20.8145C28.3659 21.4401 29.7383 22.0758 31.1309 22.7217C32.5436 23.3675 33.916 24.0638 35.248 24.8105C36.6003 25.5573 37.8011 26.4251 38.8506 27.4141C41.1917 29.6543 42.3623 32.3587 42.3623 35.5273C42.3623 38.9583 41.1211 41.9453 38.6387 44.4883C36.0352 47.1927 32.7656 48.666 28.8301 48.9082V46.3652Z" fill="#4200FF"/>
</svg>
