<svg width="53" height="86" viewBox="0 0 53 86" fill="none" xmlns="http://www.w3.org/2000/svg">
<path d="M17.9219 17.1338C19.4154 17.2751 20.6868 17.6182 21.7363 18.1631C22.806 18.708 23.5326 19.0915 23.916 19.3135C24.3197 19.5355 24.6527 19.6465 24.915 19.6465C25.1976 19.6465 25.4297 19.5859 25.6113 19.4648C25.793 19.3438 25.9544 19.2025 26.0957 19.041C26.237 18.8796 26.3581 18.708 26.459 18.5264C26.5599 18.3245 26.6608 18.1429 26.7617 17.9814H29.5469V32.1797H27.3672C26.9232 31.7155 26.4186 30.7064 25.8535 29.1523C25.2884 27.5781 24.804 26.3268 24.4004 25.3984C24.0169 24.4701 23.5326 23.6022 22.9473 22.7949C21.6556 20.9987 19.9805 19.9391 17.9219 19.6162V17.1338ZM11.7764 60.8486C10.5856 60.3037 9.74805 59.9202 9.26367 59.6982C8.7793 59.4561 8.27474 59.335 7.75 59.335C7.24544 59.335 6.68034 59.89 6.05469 61H3.23926V46.0449H5.32812C5.77214 46.5091 6.16569 47.1449 6.50879 47.9521C6.87207 48.7594 7.24544 49.6374 7.62891 50.5859C8.03255 51.5143 8.46647 52.473 8.93066 53.4619C9.39486 54.4508 9.95996 55.3691 10.626 56.2168C12.1195 58.0938 14.0166 59.1533 16.3174 59.3955V61.8779C14.501 61.7165 12.9873 61.3734 11.7764 60.8486ZM18.8301 59.3652C21.0098 59.1029 22.695 58.2148 23.8857 56.7012C24.9352 55.349 25.46 53.805 25.46 52.0693C25.46 50.3135 25.1471 48.9108 24.5215 47.8613C23.8958 46.7917 23.0684 45.8532 22.0391 45.0459C21.0299 44.2184 19.8695 43.4717 18.5576 42.8057C17.2458 42.1396 15.9036 41.4837 14.5312 40.8379C13.179 40.1719 11.847 39.4857 10.5352 38.7793C9.24349 38.0527 8.0931 37.2253 7.08398 36.2969C4.80339 34.1979 3.66309 31.6449 3.66309 28.6377C3.66309 25.5902 4.70247 22.9867 6.78125 20.8271C9.0013 18.5667 11.8773 17.3154 15.4092 17.0732V19.5859C12.9066 19.9089 11.2214 21.1904 10.3535 23.4307C10.071 24.1572 9.92969 25.0654 9.92969 26.1553C9.92969 27.2451 10.2526 28.2643 10.8984 29.2129C11.5443 30.1615 12.3919 31.0091 13.4414 31.7559C14.4909 32.5026 15.6816 33.1888 17.0137 33.8145C18.3659 34.4401 19.7383 35.0758 21.1309 35.7217C22.5436 36.3675 23.916 37.0638 25.248 37.8105C26.6003 38.5573 27.8011 39.4251 28.8506 40.4141C31.1917 42.6543 32.3623 45.3587 32.3623 48.5273C32.3623 51.9583 31.1211 54.9453 28.6387 57.4883C26.0352 60.1927 22.7656 61.666 18.8301 61.9082V59.3652Z" fill="#1A1141"/>
<rect x="40" y="48" width="13" height="13" rx="6.5" fill="black"/>
</svg>
